<svg xmlns="http://www.w3.org/2000/svg" version="1.1" xmlns:xlink="http://www.w3.org/1999/xlink" xmlns:svgjs="http://svgjs.dev/svgjs" width="1500" height="1500" viewBox="0 0 1500 1500"><rect width="1500" height="1500" fill="#050816"></rect><g transform="matrix(0.6666666666666666,0,0,0.6666666666666666,250,187.66666666666674)"><svg viewBox="0 0 320 360" data-background-color="#050816" preserveAspectRatio="xMidYMid meet" height="1687" width="1500" xmlns="http://www.w3.org/2000/svg" xmlns:xlink="http://www.w3.org/1999/xlink"><g id="tight-bounds" transform="matrix(1,0,0,1,0,0)"><svg viewBox="0 0 320 360" height="360" width="320"><g><svg></svg></g><g><svg viewBox="0 0 320 360" height="360" width="320"><g><path transform="translate(-25.80645,-5.80645) scale(10.32258,10.32258)" d="M18 33.5c8.55 0 15.5-6.95 15.5-15.5 0-8.55-6.95-15.5-15.5-15.5-8.55 0-15.5 6.95-15.5 15.5 0 8.55 6.95 15.5 15.5 15.5zM18.5 32.47v-1c7.04-0.26 12.71-5.93 12.97-12.97h1c-0.26 7.6-6.37 13.71-13.97 13.97zM18.5 3.53c7.6 0.26 13.71 6.37 13.97 13.97h-1c-0.26-7.04-5.93-12.71-12.97-12.97zM30.5 18c0 6.89-5.61 12.5-12.5 12.5-6.89 0-12.5-5.61-12.5-12.5 0-6.89 5.61-12.5 12.5-12.5 6.89 0 12.5 5.61 12.5 12.5zM17.5 3.53v1c-7.04 0.26-12.71 5.93-12.97 12.97h-1c0.26-7.6 6.37-13.71 13.97-13.97zM4.53 18.5c0.26 7.04 5.93 12.71 12.97 12.97v1c-7.6-0.26-13.71-6.37-13.97-13.97z" fill="#e1e54b" fill-rule="nonzero" stroke="none" stroke-width="1" stroke-linecap="butt" stroke-linejoin="miter" stroke-miterlimit="10" stroke-dasharray="" stroke-dashoffset="0" font-family="none" font-weight="none" font-size="none" text-anchor="none" style="mix-blend-mode: normal" data-fill-palette-color="tertiary"></path></g><g transform="matrix(1,0,0,1,64,147.9642587902073)"><svg viewBox="0 0 192 64.07148241958538" height="64.07148241958538" width="192"><g><svg viewBox="0 0 323.0303319604563 107.79704289165211" height="64.07148241958538" width="192"><g transform="matrix(1,0,0,1,131.0303319604563,27.69015642681465)"><svg viewBox="0 0 192 52.41673003802281" height="52.41673003802281" width="192"><g id="textblocktransform"><svg viewBox="0 0 192 52.41673003802281" height="52.41673003802281" width="192" id="textblock"><g><svg viewBox="0 0 192 52.41673003802281" height="52.41673003802281" width="192"><g transform="matrix(1,0,0,1,0,0)"><svg width="192" viewBox="1.95 -35 131.49 35.9" height="52.41673003802281" data-palette-color="#e1e54b"><path d="M16.25-13.5L16.25-14.8 30.05-15.35Q30.1-13.65 30.13-11.33 30.15-9 30.2-6.8 30.25-4.6 30.28-3.13 30.3-1.65 30.3-1.65L30.3-1.65Q28.1-1.1 25.68-0.5 23.25 0.1 20.98 0.48 18.7 0.85 16.85 0.85L16.85 0.85Q14 0.85 11.33-0.15 8.65-1.15 6.6-3.15L6.6-3.15Q4.05-5.7 3-9.18 1.95-12.65 1.95-16.2L1.95-16.2Q1.95-19.9 2.95-23.48 3.95-27.05 6.55-29.65L6.55-29.65Q9.35-32.45 13.1-33.7 16.85-34.95 20.8-34.95L20.8-34.95Q24.05-34.95 26.65-33.65 29.25-32.35 31.25-29.3L31.25-29.3 28.35-26.45 27.75-26.5Q26.1-29.8 23.85-31.15 21.6-32.5 18.55-32.5L18.55-32.5Q15.05-32.5 12.7-31.18 10.35-29.85 8.97-27.6 7.6-25.35 7.03-22.6 6.45-19.85 6.45-17L6.45-17Q6.45-14.25 7.25-11.55 8.05-8.85 9.73-6.63 11.4-4.4 14.05-3.08 16.7-1.75 20.35-1.75L20.35-1.75Q22.85-1.75 25.05-2.25L25.05-2.25Q25.7-2.4 25.9-3.18 26.1-3.95 26.08-4.95 26.05-5.95 26.05-6.7L26.05-6.7Q26.05-7.1 26.1-8.03 26.15-8.95 26.08-10.05 26-11.15 25.68-11.95 25.35-12.75 24.65-12.8L24.65-12.8Q23-12.95 20.8-13.08 18.6-13.2 16.55-13.25L16.55-13.25 16.25-13.5ZM35.1-15.9L35.1-15.9Q35.1-20.75 36.25-24.18 37.4-27.6 40.15-30.6L40.15-30.6Q41.75-32.3 43.9-33.25 46.05-34.2 48.47-34.6 50.9-35 53.2-35L53.2-35Q56-35 58.8-34.13 61.6-33.25 63.6-31.2L63.6-31.2Q65.15-29.65 66.07-27.48 67-25.3 67.4-22.93 67.8-20.55 67.8-18.2L67.8-18.2Q67.8-15.75 67.52-13.2 67.25-10.65 65.75-7.6L65.75-7.6Q64.55-5.15 62.1-3.23 59.65-1.3 56.32-0.2 53 0.9 49.05 0.9L49.05 0.9Q45.2 0.9 42.52-0.55 39.85-2 38.22-4.42 36.6-6.85 35.85-9.83 35.1-12.8 35.1-15.9ZM39.75-17.4L39.75-17.4Q39.75-13.9 40.57-10.73 41.4-7.55 43.7-5L43.7-5Q45.95-2.5 48.1-1.83 50.25-1.15 51.7-1.15L51.7-1.15Q54.8-1.15 56.97-2.53 59.15-3.9 60.5-6.18 61.85-8.45 62.47-11.23 63.1-14 63.1-16.8L63.1-16.8Q63.1-19.45 62.47-22.3 61.85-25.15 60.5-27.58 59.15-30 56.95-31.5 54.75-33 51.6-33L51.6-33Q48.35-33 46.1-31.65 43.85-30.3 42.45-28.05 41.05-25.8 40.4-23.03 39.75-20.25 39.75-17.4ZM95.6-3.8L95.6-3.8 92.9-13.2Q92.7-13.65 92.35-13.65L92.35-13.65 81.1-13.65Q80.8-13.65 80.6-13.25L80.6-13.25 74.75-0.85 70.2 0.1 70.05-0.4Q74.5-7.9 78.77-15.55 83.05-23.2 87-31L87-31Q87.05-31.15 87.05-31.35L87.05-31.35Q87.05-31.45 86.92-31.65 86.8-31.85 86.45-31.9L86.45-31.9 81.95-32.65 81.95-34 91.65-34Q92.05-31.95 92.82-28.83 93.6-25.7 94.55-22.28 95.5-18.85 96.3-15.85L96.3-15.85Q97.15-12.8 98.17-9.5 99.2-6.2 100.55-3.95L100.55-3.95Q101.05-3.15 101.9-2.8 102.75-2.45 103.75-2.45L103.75-2.45Q104.3-2.45 104.85-2.5 105.4-2.55 105.9-2.6L105.9-2.6 105.95-1.3 100.75 0.2Q99.65 0.5 98.5 0.5L98.5 0.5Q97.25 0.5 96.65-0.83 96.05-2.15 95.6-3.8ZM87.9-28.6L87.9-28.6 82.1-16.4Q82.05-16.35 82.05-16.18 82.05-16 82.05-15.95L82.05-15.95Q82.05-15.6 82.4-15.6L82.4-15.6 91.8-15.6Q92.15-15.6 92.15-15.95L92.15-15.95Q92.15-15.95 92.1-16.15 92.05-16.35 92.05-16.4L92.05-16.4 88.55-28.6Q88.45-28.8 88.2-28.8L88.2-28.8Q87.9-28.8 87.9-28.6ZM133.14-34.8L133.44-34.45 133.44-32.05 133.04-31.7Q129.89-31.85 127.99-31.95 126.09-32.05 125.04-32.1 123.99-32.15 123.47-32.18 122.94-32.2 122.54-32.2L122.54-32.2Q122.04-32.2 121.97-29.33 121.89-26.45 121.89-21.9L121.89-21.9Q121.89-18.9 121.99-15.15 122.09-11.4 122.24-7.65 122.39-3.9 122.54-0.85L122.54-0.85 117.54 0.5 117.09 0.05Q117.39-4.7 117.57-9.47 117.74-14.25 117.74-19L117.74-19Q117.74-20.55 117.74-22.5 117.74-24.45 117.72-26.38 117.69-28.3 117.67-29.78 117.64-31.25 117.64-31.8L117.64-31.8Q117.64-32.1 117.19-32.1L117.19-32.1Q116.29-32.1 113.47-32 110.64-31.9 106.49-31.75L106.49-31.75 106.09-32.1 106.09-34.5 106.44-34.85Q107.89-34.8 108.87-34.73 109.84-34.65 110.74-34.58 111.64-34.5 112.79-34.45 113.94-34.4 115.67-34.35 117.39-34.3 120.04-34.3L120.04-34.3Q122.84-34.3 126.34-34.48 129.84-34.65 133.14-34.8L133.14-34.8Z" opacity="1" transform="matrix(1,0,0,1,0,0)" fill="#e1e54b" class="wordmark-text-0" data-fill-palette-color="primary" id="text-0"></path></svg></g></svg></g></svg></g></svg></g><g><svg viewBox="0 0 118.656 107.79704289165211" height="107.79704289165211" width="118.656"><g><svg xmlns="http://www.w3.org/2000/svg" xmlns:xlink="http://www.w3.org/1999/xlink" version="1.1" x="0" y="0" viewBox="5.084999999999999 9.195 89.83100000000002 81.61000000000001" enable-background="new 0 0 100 100" xml:space="preserve" height="107.79704289165211" width="118.656" class="icon-icon-0" data-fill-palette-color="accent" id="icon-0"><g fill="#e1e54b" data-fill-palette-color="accent"><polygon points="54.793,78.123 51.608,78.794 50,80.585 48.392,78.794 45.207,78.123 47.983,79.872 49.993,82.42 49.993,82.438    50,82.429 50.008,82.438 50.008,82.42 52.019,79.872  " fill="#e1e54b" data-fill-palette-color="accent"></polygon><g fill="#e1e54b" data-fill-palette-color="accent"><polygon points="17.006,12.151 16.89,11.021 17.784,9.721 11.044,11.155 15.829,11.307   " fill="#e1e54b" data-fill-palette-color="accent"></polygon><polygon points="21.496,15.373 38.653,38.009 45.777,25.755 45.194,25.008 48.002,26.006 50.008,27.619 51.999,26.006     54.807,25.008 54.224,25.755 61.348,38.009 78.506,15.373 82.447,12.544 81.847,10.946 80.248,9.302 79.748,9.195 68.612,11.873     68.308,12.114 71.956,14.531 74.148,16.912 74.871,19.774 73.064,17.574 70.992,15.466 67.096,13.067 59.366,19.163 59.251,19.31     64.235,22.033 66.687,24.122 67.49,27.417 65.652,24.926 63.303,23.179 58.091,20.797 55.541,24.066 50,25.558 44.46,24.066     41.911,20.797 36.698,23.179 34.348,24.926 32.511,27.417 33.315,24.122 35.766,22.033 40.75,19.31 40.636,19.163 32.903,13.067     29.009,15.466 26.938,17.574 25.129,19.774 25.852,16.912 28.045,14.531 31.694,12.114 31.389,11.873 20.253,9.195 19.753,9.302     18.154,10.946 17.553,12.544   " fill="#e1e54b" data-fill-palette-color="accent"></polygon><polygon points="82.994,12.151 84.172,11.307 88.957,11.155 82.217,9.721 83.111,11.021   " fill="#e1e54b" data-fill-palette-color="accent"></polygon><path d="M92.968 61.819l-1.201-0.563-0.694-0.979 0.881 0.542 0.966 0.258 0.098-6.999 0.015-0.295-1.623-0.758-1.021-1.184 1.457 0.803 1.235 0.242 0.35-6.729-1.948-0.344-1.094-0.962 1.433 0.336 1.663-0.068 0.35-6.708-2.279-0.402-1.566-1.071 1.878 0.251 2.034-0.084 0.411-7.9h-2.716l-2.229-1.203 1.987 0.299 3.028-0.45 0.16-3.104-1.402-6.608-1.516 1.336-3.564 1.797 2.756-2.853 1.723-2.242-2.435-4.341-5.414 0.604-5.52 4.773L63.292 40.04l8.163-5.578 1.183-1.023 0.22 0.12-2.64 5.063-1.221 1.909-3.844 2.873-0.992 4.215-3.057 3.728-0.819 2.685 0.618-1.173 0.979 0.527 1.858-0.232 1.419-2.063 0.413-1.651-1.176 0.451-0.365 0.164 1.284-2.231 0.593-2.419 1.098 7.718L59.854 69.15l-4.09 11.76 4.244-14.855-1.269-6.485 1.061-4.426-2.557 4.463 0.987 6.14-2.705 15.849-0.148 0.425-2.304 1.436L50 83.662l-3.073-0.207-2.304-1.436-0.147-0.425-2.707-15.849 0.987-6.14L40.2 55.144l1.062 4.426-1.269 6.485 4.244 14.855-4.09-11.76-7.152-16.029 1.099-7.718 0.592 2.419 1.284 2.231-0.366-0.164-1.175-0.451 0.412 1.651 1.42 2.063 1.858 0.232 0.979-0.527 0.619 1.173-0.82-2.685-3.057-3.728-0.994-4.215-3.842-2.873-1.221-1.909-2.64-5.063 0.22-0.12 1.183 1.023 8.162 5.578L20.833 17.212l-5.519-4.773-5.415-0.604-2.434 4.341 1.722 2.242 2.756 2.853-3.565-1.797-1.514-1.336-1.404 6.608 0.161 3.104 3.028 0.45 1.989-0.299-2.229 1.203H5.691l0.41 7.9 2.035 0.084 1.878-0.251-1.565 1.071L6.17 38.411l0.349 6.708 1.663 0.068 1.432-0.336-1.093 0.962-1.948 0.344 0.35 6.729 1.236-0.242 1.456-0.803-1.021 1.184L6.97 53.783l0.015 0.295 0.097 6.999 0.966-0.258 0.882-0.542-0.696 0.979-1.201 0.563-1.948 2.096 0.132 2.874 3.49-2.639 3.72-24.245 5.518-11.746 5.085 1.528 2.825 2.445-1.394 0.645 5.296 9.242 3.388 2.171-2.522 9.564 8.483 15.781 6.332 17.241 2.169 3.231 2.385 0.789v0.007L50 90.8l0.008 0.005v-0.007l2.384-0.789 2.17-3.231 6.33-17.241 8.484-15.781-2.522-9.564 3.39-2.171 5.296-9.242-1.395-0.645 2.825-2.445 5.086-1.528 5.518 11.746 3.719 24.245 3.491 2.639 0.132-2.874L92.968 61.819zM53.809 86.532l-2.304 2.117L50 88.863l-1.504-0.214-2.303-2.117-1.551-4.461 2.13 2.213 3.222 0.933v0.005L50 85.219l0.008 0.003v-0.005l3.221-0.933 2.13-2.213L53.809 86.532z" fill="#e1e54b" data-fill-palette-color="accent"></path></g></g></svg></g></svg></g></svg></g></svg></g></svg></g><defs></defs></svg><rect width="320" height="360" fill="none" stroke="none" visibility="hidden"></rect></g></svg></g></svg>